<?xml version="1.0" encoding="UTF-8" standalone="no"?>
<!-- Created with Inkscape (http://www.inkscape.org/) -->

<svg
   xmlns:dc="http://purl.org/dc/elements/1.1/"
   xmlns:cc="http://creativecommons.org/ns#"
   xmlns:rdf="http://www.w3.org/1999/02/22-rdf-syntax-ns#"
   xmlns:svg="http://www.w3.org/2000/svg"
   xmlns="http://www.w3.org/2000/svg"
   xmlns:xlink="http://www.w3.org/1999/xlink"
   xmlns:sodipodi="http://sodipodi.sourceforge.net/DTD/sodipodi-0.dtd"
   xmlns:inkscape="http://www.inkscape.org/namespaces/inkscape"
   width="744.09448819"
   height="1052.3622047"
   id="svg2"
   version="1.1"
   inkscape:version="0.47 r22583"
   sodipodi:docname="psfmap.svg">
  <defs
     id="defs4">
    <marker
       inkscape:stockid="Arrow1Lend"
       orient="auto"
       refY="0.0"
       refX="0.0"
       id="Arrow1Lend"
       style="overflow:visible;">
      <path
         id="path3766"
         d="M 0.0,0.0 L 5.0,-5.0 L -12.5,0.0 L 5.0,5.0 L 0.0,0.0 z "
         style="fill-rule:evenodd;stroke:#000000;stroke-width:1.0pt;marker-start:none;"
         transform="scale(0.8) rotate(180) translate(12.5,0)" />
    </marker>
    <marker
       inkscape:stockid="Arrow1Lstart"
       orient="auto"
       refY="0.0"
       refX="0.0"
       id="Arrow1Lstart"
       style="overflow:visible">
      <path
         id="path3763"
         d="M 0.0,0.0 L 5.0,-5.0 L -12.5,0.0 L 5.0,5.0 L 0.0,0.0 z "
         style="fill-rule:evenodd;stroke:#000000;stroke-width:1.0pt;marker-start:none"
         transform="scale(0.8) translate(12.5,0)" />
    </marker>
    <inkscape:perspective
       sodipodi:type="inkscape:persp3d"
       inkscape:vp_x="0 : 526.18109 : 1"
       inkscape:vp_y="0 : 1000 : 0"
       inkscape:vp_z="744.09448 : 526.18109 : 1"
       inkscape:persp3d-origin="372.04724 : 350.78739 : 1"
       id="perspective10" />
    <inkscape:perspective
       id="perspective5048"
       inkscape:persp3d-origin="0.5 : 0.33333333 : 1"
       inkscape:vp_z="1 : 0.5 : 1"
       inkscape:vp_y="0 : 1000 : 0"
       inkscape:vp_x="0 : 0.5 : 1"
       sodipodi:type="inkscape:persp3d" />
    <inkscape:perspective
       id="perspective5875"
       inkscape:persp3d-origin="0.5 : 0.33333333 : 1"
       inkscape:vp_z="1 : 0.5 : 1"
       inkscape:vp_y="0 : 1000 : 0"
       inkscape:vp_x="0 : 0.5 : 1"
       sodipodi:type="inkscape:persp3d" />
    <inkscape:perspective
       id="perspective6464"
       inkscape:persp3d-origin="0.5 : 0.33333333 : 1"
       inkscape:vp_z="1 : 0.5 : 1"
       inkscape:vp_y="0 : 1000 : 0"
       inkscape:vp_x="0 : 0.5 : 1"
       sodipodi:type="inkscape:persp3d" />
    <inkscape:perspective
       id="perspective6677"
       inkscape:persp3d-origin="0.5 : 0.33333333 : 1"
       inkscape:vp_z="1 : 0.5 : 1"
       inkscape:vp_y="0 : 1000 : 0"
       inkscape:vp_x="0 : 0.5 : 1"
       sodipodi:type="inkscape:persp3d" />
  </defs>
  <sodipodi:namedview
     id="base"
     pagecolor="#ffffff"
     bordercolor="#666666"
     borderopacity="1.0"
     inkscape:pageopacity="0.0"
     inkscape:pageshadow="2"
     inkscape:zoom="1.4"
     inkscape:cx="328.81329"
     inkscape:cy="714.89628"
     inkscape:document-units="px"
     inkscape:current-layer="layer1"
     showgrid="false"
     inkscape:window-width="1627"
     inkscape:window-height="921"
     inkscape:window-x="3"
     inkscape:window-y="30"
     inkscape:window-maximized="0" />
  <metadata
     id="metadata7">
    <rdf:RDF>
      <cc:Work
         rdf:about="">
        <dc:format>image/svg+xml</dc:format>
        <dc:type
           rdf:resource="http://purl.org/dc/dcmitype/StillImage" />
        <dc:title></dc:title>
      </cc:Work>
    </rdf:RDF>
  </metadata>
  <g
     inkscape:label="Layer 1"
     inkscape:groupmode="layer"
     id="layer1">
    <rect
       ry="0.43433651"
       rx="0.14752249"
       y="39.352623"
       x="171.73851"
       height="323.72046"
       width="62.564159"
       id="rect3736"
       style="opacity:0.98000003999999996;color:#000000;fill:#ffffff;fill-opacity:1;fill-rule:nonzero;stroke:#000000;stroke-width:1.42126272;stroke-linecap:butt;stroke-linejoin:miter;stroke-miterlimit:2.5;stroke-opacity:1;stroke-dasharray:none;stroke-dashoffset:0;marker:none;visibility:visible;display:inline;overflow:visible;enable-background:accumulate"
       transform="matrix(0.77351955,0.63377244,0,1,0,0)" />
    <path
       sodipodi:nodetypes="cssssssc"
       id="path3740"
       d="m 181.45629,188.09794 c 0,0 -0.3336,39.15236 -6.75526,52.66894 -5.5472,11.67598 -15.17435,23.42705 -18.78752,30.69175 -4.23817,8.52132 -14.46475,27.10247 -15.05131,53.62767 -0.48801,22.06876 5.51443,51.45512 10.79418,69.15832 6.0447,20.26813 13.49586,37.69214 18.28061,52.74743 4.2086,13.24244 10.33715,32.30969 10.91749,39.19039 1.01843,12.07486 0.35139,24.16004 0.35139,24.16004"
       style="fill:none;stroke:#000000;stroke-width:1.25;stroke-linecap:butt;stroke-linejoin:miter;stroke-miterlimit:2.5;stroke-opacity:1;stroke-dasharray:none;stroke-dashoffset:0" />
    <path
       style="fill:none;stroke:#000000;stroke-width:1.25;stroke-linecap:butt;stroke-linejoin:miter;stroke-miterlimit:2.5;stroke-opacity:1;stroke-dasharray:none;stroke-dashoffset:0"
       d="m 181.45629,188.09794 c 0,0 -0.3336,39.15236 -6.75526,52.66894 -5.5472,11.67598 -15.17435,23.42705 -18.78752,30.69175 -4.23817,8.52132 -14.46475,27.10247 -15.05131,53.62767 -0.48801,22.06876 5.51443,51.45512 10.79418,69.15832 6.0447,20.26813 13.49586,37.69214 18.28061,52.74743 4.2086,13.24244 10.33715,32.30969 10.91749,39.19039 1.01843,12.07486 0.35139,24.16004 0.35139,24.16004"
       id="path3744"
       sodipodi:nodetypes="cssssssc" />
    <rect
       ry="0.43433651"
       rx="0.22454895"
       y="150.1479"
       x="89.650566"
       height="323.72046"
       width="95.231018"
       id="rect3748"
       style="opacity:0.98000003999999996;color:#000000;fill:#ffffff;fill-opacity:1;fill-rule:nonzero;stroke:#000000;stroke-width:1.26332357;stroke-linecap:butt;stroke-linejoin:miter;stroke-miterlimit:2.5;stroke-opacity:1;stroke-dasharray:none;stroke-dashoffset:0;marker:none;visibility:visible;display:inline;overflow:visible;enable-background:accumulate"
       transform="matrix(0.97901834,0.20377215,0,1,0,0)" />
    <rect
       ry="0.43433651"
       rx="0.22454895"
       y="150.1479"
       x="89.650566"
       height="323.72046"
       width="95.231018"
       id="rect3750"
       style="opacity:0.98000003999999996;color:#000000;fill:#ffffff;fill-opacity:1;fill-rule:nonzero;stroke:#000000;stroke-width:1.26332357;stroke-linecap:butt;stroke-linejoin:miter;stroke-miterlimit:2.5;stroke-opacity:1;stroke-dasharray:none;stroke-dashoffset:0;marker:none;visibility:visible;display:inline;overflow:visible;enable-background:accumulate"
       transform="matrix(0.97901834,0.20377215,0,1,0,0)" />
    <path
       sodipodi:nodetypes="cssssssc"
       id="path3752"
       d="m 181.42357,187.98091 c 0,0 -0.64268,39.29191 -13.0141,55.49502 -10.68676,13.99666 -29.23362,29.77528 -36.19445,38.55155 -8.16488,10.29438 -27.86654,33.15385 -28.99656,59.92444 -0.94016,22.27291 10.62364,49.14813 20.79515,64.64254 11.64521,17.73931 25.99998,32.04611 35.21787,45.09969 8.10793,11.48175 19.91466,27.98511 21.0327,34.62303 1.96202,11.64879 0.67695,24.01303 0.67695,24.01303"
       style="fill:none;stroke:#000000;stroke-width:1.25;stroke-linecap:butt;stroke-linejoin:miter;stroke-miterlimit:2.5;stroke-opacity:1;stroke-dasharray:none;stroke-dashoffset:0" />
    <rect
       transform="matrix(0.97901834,0.20377215,0,1,0,0)"
       style="opacity:0.98000003999999996;color:#000000;fill:#ffffff;fill-opacity:1;fill-rule:nonzero;stroke:#000000;stroke-width:1.26332357;stroke-linecap:butt;stroke-linejoin:miter;stroke-miterlimit:2.5;stroke-opacity:1;stroke-dasharray:none;stroke-dashoffset:0;marker:none;visibility:visible;display:inline;overflow:visible;enable-background:accumulate"
       id="rect3754"
       width="95.231018"
       height="323.72046"
       x="89.650566"
       y="150.1479"
       rx="0.22454895"
       ry="0.43433651" />
    <path
       style="fill:none;stroke:#000000;stroke-width:1.25;stroke-linecap:butt;stroke-linejoin:miter;stroke-miterlimit:2.5;stroke-opacity:1;stroke-dasharray:none;stroke-dashoffset:0"
       d="m 181.42357,187.98091 c 0,0 -0.64268,39.29191 -13.0141,55.49502 -10.68676,13.99666 -29.23362,29.77528 -36.19445,38.55155 -8.16488,10.29438 -27.86654,33.15385 -28.99656,59.92444 -0.94016,22.27291 10.62364,49.14813 20.79515,64.64254 11.64521,17.73931 25.99998,32.04611 35.21787,45.09969 8.10793,11.48175 19.91466,27.98511 21.0327,34.62303 1.96202,11.64879 0.67695,24.01303 0.67695,24.01303"
       id="path3756"
       sodipodi:nodetypes="cssssssc" />
    <rect
       transform="matrix(-0.76757557,0.64095845,0,1,0,0)"
       style="opacity:0.98000004;color:#000000;fill:#ffffff;fill-opacity:1;fill-rule:nonzero;stroke:#000000;stroke-width:1.42675519;stroke-linecap:butt;stroke-linejoin:miter;stroke-miterlimit:2.5;stroke-opacity:1;stroke-dasharray:none;stroke-dashoffset:0;marker:none;visibility:visible;display:inline;overflow:visible;enable-background:accumulate"
       id="rect3663"
       width="61.862728"
       height="323.72046"
       x="-299.02859"
       y="339.86066"
       rx="0.14586855"
       ry="0.43433651" />
    <rect
       transform="matrix(-0.76757557,0.64095845,0,1,0,0)"
       style="opacity:0.98000003999999996;color:#000000;fill:#ffffff;fill-opacity:1;fill-rule:nonzero;stroke:#000000;stroke-width:1.42675512;stroke-linecap:butt;stroke-linejoin:miter;stroke-miterlimit:2.5;stroke-opacity:1;stroke-dasharray:none;stroke-dashoffset:0;marker:none;visibility:visible;display:inline;overflow:visible;enable-background:accumulate"
       id="rect3665"
       width="61.862728"
       height="323.72046"
       x="-299.02859"
       y="339.86066"
       rx="0.14586855"
       ry="0.43433651" />
    <path
       style="fill:none;stroke:#000000;stroke-width:1.25;stroke-linecap:butt;stroke-linejoin:miter;stroke-miterlimit:2.5;stroke-opacity:1;stroke-dasharray:none;stroke-dashoffset:0"
       d="m 181.82825,188.09794 c 0,0 0.32732,39.15236 6.6282,52.66894 5.44285,11.67598 14.88893,23.42705 18.43414,30.69175 4.15844,8.52132 14.19267,27.10247 14.7682,53.62767 0.47883,22.06876 -5.41071,51.45512 -10.59115,69.15832 -5.931,20.26813 -13.24201,37.69214 -17.93676,52.74743 -4.12944,13.24244 -10.14271,32.30969 -10.71214,39.19039 -0.99927,12.07486 -0.34477,24.16004 -0.34477,24.16004"
       id="path3667"
       sodipodi:nodetypes="cssssssc" />
    <path
       sodipodi:nodetypes="cssssssc"
       id="path3671"
       d="m 181.82825,188.09794 c 0,0 0.32732,39.15236 6.6282,52.66894 5.44285,11.67598 14.88893,23.42705 18.43414,30.69175 4.15844,8.52132 14.19267,27.10247 14.7682,53.62767 0.47883,22.06876 -5.41071,51.45512 -10.59115,69.15832 -5.931,20.26813 -13.24201,37.69214 -17.93676,52.74743 -4.12944,13.24244 -10.14271,32.30969 -10.71214,39.19039 -0.99927,12.07486 -0.34477,24.16004 -0.34477,24.16004"
       style="fill:none;stroke:#000000;stroke-width:1.25;stroke-linecap:butt;stroke-linejoin:miter;stroke-miterlimit:2.5;stroke-opacity:1;stroke-dasharray:none;stroke-dashoffset:0" />
    <rect
       transform="matrix(-0.97803974,0.2084185,0,1,0,0)"
       style="opacity:0.98000004;color:#000000;fill:#ffffff;fill-opacity:1;fill-rule:nonzero;stroke:#000000;stroke-width:1.26395547;stroke-linecap:butt;stroke-linejoin:miter;stroke-miterlimit:2.5;stroke-opacity:1;stroke-dasharray:none;stroke-dashoffset:0;marker:none;visibility:visible;display:inline;overflow:visible;enable-background:accumulate"
       id="rect3651"
       width="93.108002"
       height="323.72046"
       x="-279.55356"
       y="226.68031"
       rx="0.21954301"
       ry="0.43433651" />
    <rect
       transform="matrix(-0.97803974,0.2084185,0,1,0,0)"
       style="opacity:0.98000004;color:#000000;fill:#ffffff;fill-opacity:1;fill-rule:nonzero;stroke:#000000;stroke-width:1.26395547;stroke-linecap:butt;stroke-linejoin:miter;stroke-miterlimit:2.5;stroke-opacity:1;stroke-dasharray:none;stroke-dashoffset:0;marker:none;visibility:visible;display:inline;overflow:visible;enable-background:accumulate"
       id="rect3653"
       width="93.108002"
       height="323.72046"
       x="-279.55356"
       y="226.68031"
       rx="0.21954301"
       ry="0.43433651" />
    <rect
       style="opacity:0.98000003999999996;color:#000000;fill:#ffffff;fill-opacity:1;fill-rule:nonzero;stroke:#000000;stroke-width:1.25;stroke-linecap:butt;stroke-linejoin:miter;stroke-miterlimit:2.5;stroke-opacity:1;stroke-dasharray:none;stroke-dashoffset:0;marker:none;visibility:visible;display:inline;overflow:visible;enable-background:accumulate"
       id="rect2818"
       width="108.94189"
       height="323.72046"
       x="72.438377"
       y="188.16881"
       rx="0.25687835"
       ry="0.43433651" />
    <path
       style="fill:none;stroke:#000000;stroke-width:1.25;stroke-linecap:butt;stroke-linejoin:miter;stroke-opacity:1;stroke-miterlimit:2.5;stroke-dasharray:1.25,2.5;stroke-dashoffset:0"
       d="m 181.87233,188.24046 c 0,0 -0.75096,39.42568 -15.20687,58.20377 -12.48738,16.22099 -34.15924,35.85994 -42.29291,46.08504 -9.5406,11.9938 -32.561825,38.95396 -33.88224,65.95975 -1.098575,22.46861 12.41363,46.93694 24.29895,60.31426 13.60733,15.31549 30.38077,26.63449 41.15179,37.76947 9.47406,9.79417 23.27013,23.84008 24.57654,30.24529 2.29261,11.24043 0.79102,23.87214 0.79102,23.87214"
       id="path3592"
       sodipodi:nodetypes="cssssssc" />
    <path
       sodipodi:nodetypes="cssssssc"
       id="path3596"
       d="m 181.94567,188.2458 c 0,0 0.65776,39.43546 13.31964,58.21819 10.93767,16.22503 29.91998,35.86885 37.04424,46.09648 8.35658,11.99678 28.5208,38.96363 29.67735,65.97612 0.96224,22.47417 -10.87306,46.94857 -21.28338,60.32921 -11.91862,15.31929 -26.61042,26.64111 -36.04473,37.77884 -8.29829,9.79661 -20.38223,23.846 -21.52651,30.2528 -2.0081,11.24321 -0.69285,23.87805 -0.69285,23.87805"
       style="fill:none;stroke:#000000;stroke-width:1.17001224;stroke-linecap:butt;stroke-linejoin:miter;stroke-miterlimit:2.5;stroke-opacity:1;stroke-dasharray:1.17001224,2.34002447;stroke-dashoffset:0" />
    <path
       style="fill:none;stroke:#000000;stroke-width:1.25;stroke-linecap:butt;stroke-linejoin:miter;stroke-miterlimit:4;stroke-opacity:1;stroke-dasharray:none;marker-start:none;marker-end:url(#Arrow1Lend)"
       d="m 181.87233,527.71519 -108.234869,0"
       id="path3758" />
    <text
       xml:space="preserve"
       style="font-size:12px;font-style:normal;font-weight:normal;fill:#000000;fill-opacity:1;stroke:none;font-family:Bitstream Vera Sans"
       x="122.90685"
       y="545.02557"
       id="text4764"><tspan
         sodipodi:role="line"
         x="122.90685"
         y="545.02557"
         id="tspan4768">r</tspan></text>
    <path
       style="fill:none;stroke:#000000;stroke-width:1.25;stroke-linecap:butt;stroke-linejoin:miter;stroke-opacity:1;stroke-miterlimit:1;stroke-dasharray:none;marker-end:url(#Arrow1Lend)"
       d="m 53.571429,186.6479 0,320.71428"
       id="path4772" />
    <text
       xml:space="preserve"
       style="font-size:12px;font-style:normal;font-weight:normal;fill:#000000;fill-opacity:1;stroke:none;font-family:Bitstream Vera Sans"
       x="35.57143"
       y="345.21933"
       id="text4992"><tspan
         sodipodi:role="line"
         id="tspan4994"
         x="35.57143"
         y="345.21933">z</tspan></text>
    <path
       style="fill:none;stroke:#000000;stroke-width:1.13880897;stroke-linecap:butt;stroke-linejoin:miter;stroke-miterlimit:4;stroke-opacity:1;stroke-dasharray:4.55523579, 4.55523579;stroke-dashoffset:0;marker-start:none;marker-end:url(#Arrow1Lend)"
       d="m 125.64083,299.51671 c 54.50758,56.32572 106.28977,-1.94227 106.28977,-1.94227"
       id="path5062"
       sodipodi:nodetypes="cc" />
    <path
       style="fill:none;stroke:#000000;stroke-width:1.10845208;stroke-linecap:butt;stroke-linejoin:miter;stroke-miterlimit:4;stroke-opacity:1;stroke-dasharray:4.43380851, 4.43380851;stroke-dashoffset:0;marker-end:url(#Arrow1Lend)"
       d="m 90.625656,367.4164 c 85.568504,104.08709 168.462974,4.68862 168.462974,4.68862"
       id="path5064"
       sodipodi:nodetypes="cc" />
    <image
       y="243.71935"
       x="319.07144"
       id="image5877"
       height="161.57143"
       width="287.57144"
       xlink:href="file:///home/janickc/phd/svn/mosaic/exercises/PHPC/2010/03_tutorial/images/inkscape_pasted_image_20101121_194520.png" />
    <path
       style="fill:none;stroke:#000000;stroke-width:1px;stroke-linecap:butt;stroke-linejoin:miter;stroke-opacity:1;marker-start:none;marker-end:url(#Arrow1Lend)"
       d="m 320,228.07647 285,0"
       id="path5896" />
    <text
       xml:space="preserve"
       style="font-size:12px;font-style:normal;font-weight:normal;fill:#000000;fill-opacity:1;stroke:none;font-family:Bitstream Vera Sans"
       x="463.27914"
       y="217.07201"
       id="text4992-5"><tspan
         sodipodi:role="line"
         id="tspan4994-3"
         x="463.27914"
         y="217.07201">z</tspan></text>
    <path
       style="fill:none;stroke:#000000;stroke-width:1px;stroke-linecap:butt;stroke-linejoin:miter;stroke-opacity:1;marker-end:url(#Arrow1Lend)"
       d="m 618.42857,246.6479 0,157.85714"
       id="path6481" />
    <text
       xml:space="preserve"
       style="font-size:12px;font-style:normal;font-weight:normal;fill:#000000;fill-opacity:1;stroke:none;font-family:Bitstream Vera Sans"
       x="628.41687"
       y="330.00824"
       id="text4764-5"><tspan
         sodipodi:role="line"
         x="628.41687"
         y="330.00824"
         id="tspan4768-0">r</tspan></text>
  </g>
</svg>
